<svg width="12" height="16" viewBox="0 0 12 16" fill="none" xmlns="http://www.w3.org/2000/svg">
<path d="M10.4363 14.5258C9.80417 15.0903 9.05555 15.4869 8.25178 15.6834C8.17485 15.7102 8.12308 15.603 8.17485 15.5494C9.89648 13.7988 8.95047 11.9043 8.25178 11.0501C7.75362 10.4403 7.04414 9.4359 7.09586 8.08908C7.09586 7.95425 6.96651 7.84623 6.86443 7.92743C5.88752 8.46601 5.21972 9.65117 5.04001 10.6203C4.75678 10.3246 4.65399 9.86645 4.65399 9.46271C4.65399 9.32788 4.50016 9.21985 4.37148 9.32788C3.44634 10.2166 1.85339 13.2326 4.42324 15.6022C4.47428 15.6566 4.42324 15.7646 4.37148 15.7378C3.59225 15.5201 2.85945 15.1451 2.21281 14.6331C-1.97586 11.1857 0.74854 5.07219 2.52191 3.05275C2.75266 2.8099 3.16383 2.97154 3.16383 3.32165C3.18972 4.04945 3.3953 4.85692 3.93443 5.39548C4.34561 3.5645 5.71571 1.48455 7.66878 0.461038C7.92542 0.326205 8.23378 0.541479 8.20792 0.837959C8.15761 3.34311 9.69091 4.93812 11.0272 7.01194C12.2097 8.86974 12.9803 12.2904 10.4363 14.5258Z" fill="white"/>
</svg>
