<svg width="11" height="8" viewBox="0 0 11 8" fill="none" xmlns="http://www.w3.org/2000/svg">
<path d="M9.19087 0.984375C10.0672 0.984375 10.6624 1.87512 10.327 2.68484L8.53005 7.02307C8.33976 7.48263 7.8913 7.78219 7.39391 7.78219H1.80791C1.12872 7.78219 0.578125 7.23159 0.578125 6.55242V2.21416C0.578125 1.53497 1.12872 0.984375 1.80791 0.984375H9.19087ZM2.54043 1.98877H1.50053V4.86211C1.50053 5.24531 1.57689 5.58846 1.72977 5.89172C1.88263 6.19514 2.10829 6.43216 2.40705 6.60328C2.70578 6.77423 3.06264 6.85978 3.47779 6.85978C3.89291 6.85978 4.24966 6.77423 4.54853 6.60328C4.84715 6.4323 5.07295 6.19514 5.2258 5.89172C5.37855 5.58846 5.45505 5.24517 5.45505 4.86211V1.98877H4.41515V4.77998C4.41515 5.13124 4.33398 5.40145 4.17205 5.59066C4.01015 5.77999 3.77873 5.87459 3.47765 5.87459C3.17657 5.87459 2.94515 5.77999 2.78324 5.59066C2.62134 5.40145 2.54043 5.13124 2.54043 4.77998V1.98877ZM7.8532 1.90678H7.04732V3.10256L5.85168 3.10242V3.9083H7.04718L7.04732 5.10396H7.8532V3.90844H8.84812L9.18677 3.10256H7.8532V1.90678Z" fill="white"/>
</svg>
