<svg width="15" height="15" viewBox="0 0 15 15" fill="none" xmlns="http://www.w3.org/2000/svg">
<path d="M1.64062 6.44995H2.07656" stroke="white" stroke-width="2.5" stroke-linecap="round" stroke-linejoin="round"/>
<path d="M9.14062 3.52261L9.45 3.21558" stroke="white" stroke-width="2.5" stroke-linecap="round" stroke-linejoin="round"/>
<path d="M6.21533 2.31094V1.875" stroke="white" stroke-width="2.5" stroke-linecap="round" stroke-linejoin="round"/>
<path d="M3.28799 3.52261L2.98096 3.21558" stroke="white" stroke-width="2.5" stroke-linecap="round" stroke-linejoin="round"/>
<path d="M8.26001 7.47195C8.70086 6.59217 8.52904 5.52897 7.83345 4.83289C6.9402 3.93998 5.49232 3.93998 4.59907 4.83289C3.9027 5.5284 3.72988 6.59168 4.17015 7.47195L5.13814 9.27432C5.1786 9.34268 5.25094 9.38592 5.33032 9.38914H7.09984C7.17922 9.38592 7.2516 9.34268 7.29202 9.27432L8.26001 7.47195ZM7.12327 10.3126C7.11694 10.4683 6.9861 10.5897 6.83032 10.5845H5.59984C5.44969 10.5845 5.32796 10.4627 5.32796 10.3126C5.32796 10.1624 5.44969 10.0407 5.59984 10.0407H6.83032C6.9861 10.0354 7.11694 10.1568 7.12327 10.3126ZM6.76001 11.2501H5.67015C5.68901 11.5372 5.92736 11.7604 6.2151 11.7604C6.5028 11.7604 6.74115 11.5372 6.76001 11.2501Z" fill="white"/>
<path d="M6.21623 8.7376C7.47956 8.7376 8.50373 7.71344 8.50373 6.4501C8.50373 5.18676 7.47956 4.1626 6.21623 4.1626C4.95285 4.1626 3.92873 5.18676 3.92873 6.4501C3.92873 7.71344 4.95285 8.7376 6.21623 8.7376Z" fill="white"/>
<path d="M13.3235 10.5095L13.1524 9.25094C13.1457 9.20399 13.1204 9.16173 13.0821 9.13375C13.0451 9.10439 12.9976 9.09168 12.9508 9.09858L11.5048 9.29782L11.3079 7.86108C11.3053 7.81293 11.2844 7.76759 11.2493 7.73452C11.2108 7.70643 11.1631 7.6939 11.1157 7.69938L9.84304 7.88219C9.7962 7.88909 9.75401 7.9144 9.72585 7.9525L9.37429 8.40719C9.34496 8.4442 9.33225 8.49172 9.33915 8.53844L9.47977 9.57438L8.43679 9.71733C8.41279 9.72052 8.38969 9.72847 8.36884 9.74077C8.34979 9.75239 8.33306 9.7675 8.3196 9.78532L7.96804 10.24C7.94074 10.278 7.929 10.3249 7.93522 10.3713L8.10634 11.6298C8.11241 11.6764 8.1369 11.7186 8.17429 11.747C8.21227 11.7762 8.26042 11.7889 8.3079 11.7822L9.75397 11.5853L9.95085 13.0197C9.9567 13.0663 9.98122 13.1086 10.0188 13.1369C10.0568 13.1661 10.105 13.1788 10.1524 13.172L11.418 12.9986C11.4657 12.992 11.5087 12.9667 11.5376 12.9283L11.8845 12.4736C11.8987 12.4556 11.9091 12.4348 11.9149 12.4126C11.9197 12.3895 11.9197 12.3655 11.9149 12.3423L11.772 11.3088L12.8173 11.1634C12.8641 11.1582 12.9066 11.1335 12.9345 11.0955L13.2883 10.6408C13.303 10.6231 13.3135 10.6022 13.3188 10.5798C13.3262 10.5571 13.3278 10.533 13.3235 10.5095Z" fill="url(#paint0_linear_1_68)"/>
<path d="M13.3239 10.5095L13.1528 9.25094C13.1461 9.20399 13.1208 9.16173 13.0825 9.13375C13.0455 9.10439 12.998 9.09168 12.9513 9.09858L11.5052 9.29782L11.3083 7.86108C11.3058 7.81293 11.2848 7.76759 11.2497 7.73452C11.2111 7.70643 11.1635 7.6939 11.1161 7.69938L9.84344 7.88219C9.79661 7.88909 9.75442 7.9144 9.72626 7.9525C9.71156 7.9702 9.70113 7.99105 9.69581 8.01344C9.68992 8.0365 9.68992 8.06065 9.69581 8.08375L9.89268 9.51813L8.43719 9.71733C8.41319 9.72052 8.39009 9.72847 8.36924 9.74077C8.35019 9.75239 8.33347 9.7675 8.32001 9.78532C8.30576 9.80332 8.29537 9.82405 8.28956 9.84625C8.28367 9.86932 8.28367 9.89347 8.28956 9.91657L8.46063 11.1751C8.47627 11.2717 8.56507 11.3388 8.66219 11.3275L10.1083 11.1306L10.3122 12.565C10.319 12.6113 10.3433 12.6533 10.3802 12.6822C10.4182 12.7114 10.4663 12.7241 10.5138 12.7173L11.7794 12.5439C11.8033 12.5404 11.8263 12.5324 11.8474 12.5205C11.8872 12.496 11.9164 12.4576 11.9294 12.4126C11.9342 12.3895 11.9342 12.3655 11.9294 12.3423L11.7184 10.908L13.1646 10.7111C13.1876 10.7072 13.2098 10.6993 13.2302 10.6876C13.2505 10.6759 13.2681 10.6599 13.2817 10.6408C13.2964 10.6231 13.3068 10.6022 13.3122 10.5798C13.322 10.5578 13.326 10.5336 13.3239 10.5095Z" fill="url(#paint1_linear_1_68)"/>
<path d="M12.3249 9.43611C12.0176 9.4789 11.803 9.76236 11.8452 10.0697C11.8874 10.3771 12.1705 10.5922 12.4779 10.5506C12.7853 10.5091 13.001 10.2264 12.9601 9.91892C12.9403 9.77046 12.8621 9.63606 12.7429 9.54542C12.6237 9.45478 12.4732 9.41545 12.3249 9.43611ZM12.4538 10.3736C12.3032 10.3952 12.1545 10.3236 12.0774 10.1925C12.0003 10.0613 12.0101 9.89665 12.1021 9.77552C12.1941 9.6544 12.3502 9.60088 12.4972 9.64003C12.6442 9.67915 12.753 9.80323 12.7726 9.95406C12.7935 10.1542 12.6529 10.3351 12.4538 10.3642V10.3736ZM10.4921 8.03455L10.0233 9.19236L11.2655 9.02125L10.4921 8.03455ZM10.3257 8.96031L10.546 8.40718L10.9187 8.87593L10.3257 8.96031ZM8.60303 9.99861L8.74133 11.0158L9.75615 10.8752L9.60851 9.85798L8.60303 9.99861ZM8.90539 10.8002L8.81865 10.158L9.45615 10.0783L9.54289 10.7205L8.90539 10.8002Z" fill="#C3862C"/>
<path d="M11.1571 11.8054L11.5954 12.1406L11.4829 12.2906L11.0423 11.9531L10.7071 12.3937L10.5571 12.2789L10.8899 11.8406L10.4517 11.5078L10.5665 11.3578L11.0142 11.6906L11.3399 11.25L11.4899 11.3625L11.1571 11.8054Z" fill="#C3862C"/>
<defs>
<linearGradient id="paint0_linear_1_68" x1="112.614" y1="111.884" x2="447.551" y2="446.824" gradientUnits="userSpaceOnUse">
<stop stop-color="#C3862C"/>
<stop offset="1" stop-color="#986D29"/>
</linearGradient>
<linearGradient id="paint1_linear_1_68" x1="82.6451" y1="124.998" x2="438.105" y2="395.107" gradientUnits="userSpaceOnUse">
<stop offset="0.03" stop-color="#FDE64E"/>
<stop offset="1" stop-color="#FCC013"/>
</linearGradient>
</defs>
</svg>
