<svg width="10" height="10" viewBox="0 0 10 10" fill="none" xmlns="http://www.w3.org/2000/svg">
<path d="M8.39594 0.8125C8.54729 0.819981 8.69136 0.879606 8.80375 0.98125L9.81393 1.98438C9.91671 2.09879 9.97641 2.24553 9.98268 2.39924V4.95625C9.97521 5.10689 9.91555 5.25029 9.81393 5.36174L5.26469 9.9133C5.22051 9.95913 5.15961 9.985 5.09594 9.985C5.0323 9.985 4.97136 9.95913 4.92719 9.9133L0.884226 5.86795C0.838394 5.82377 0.8125 5.76288 0.8125 5.6992C0.8125 5.63556 0.838394 5.57466 0.884226 5.53049L5.43344 0.98125C5.54601 0.879932 5.69001 0.82036 5.84125 0.8125H8.39594ZM4.97875 6.28049C4.5733 6.68361 4.50531 7.12187 4.8475 7.46406C5.18969 7.80625 5.63268 7.74299 6.0358 7.3375H6.02642C6.43893 6.92732 6.49986 6.47267 6.16705 6.14219C5.83424 5.81174 5.38424 5.87736 4.97875 6.28049ZM5.33031 6.64139C5.53893 6.4375 5.73813 6.3367 5.85299 6.4492C5.96781 6.5617 5.86938 6.76799 5.66313 6.97424C5.45688 7.18049 5.25063 7.26955 5.14049 7.15937C5.03031 7.04924 5.12406 6.84531 5.33031 6.64139ZM7.03424 4.84608L3.21625 5.84219L3.5608 6.18438L7.37643 5.18125L7.03424 4.84608ZM4.56393 3.68125C4.14906 4.09375 4.09049 4.525 4.43267 4.86486C4.77486 5.20469 5.20844 5.14844 5.61861 4.73594C6.02875 4.32344 6.08969 3.87344 5.75455 3.54295C5.41938 3.2125 4.97406 3.26875 4.56393 3.68125ZM5.43813 3.85C5.55299 3.9625 5.46156 4.16875 5.25299 4.37733C5.04906 4.58125 4.8358 4.67031 4.72563 4.56014C4.61549 4.45 4.70688 4.25312 4.91549 4.04219C5.12406 3.83125 5.3233 3.7375 5.43813 3.85ZM8.21301 1.98962L8.16501 1.99217C7.9888 2.00804 7.82631 2.09388 7.71393 2.23045C7.43808 2.46445 7.40054 2.87628 7.62955 3.15625C7.91174 3.39182 8.33144 3.35402 8.56705 3.07187C8.8429 2.83791 8.88044 2.42609 8.65143 2.14611C8.54095 2.05255 8.40359 1.99844 8.26079 1.99053L8.21301 1.98962Z" fill="white"/>
</svg>
