<svg width="15" height="15" viewBox="0 0 15 15" fill="none" xmlns="http://www.w3.org/2000/svg">
<path d="M5.15707 4.49774H6.9219L7.26645 3.34694C7.21399 3.29715 7.13929 3.27848 7.06958 3.29772L3.07347 4.36881C3.01808 4.38362 2.97088 4.41989 2.94229 4.46961C2.9137 4.5193 2.90608 4.57832 2.92112 4.63367L4.27346 9.68444V9.70086V5.36961C4.27406 5.13651 4.36774 4.91331 4.53364 4.74962C4.69957 4.5859 4.92397 4.49522 5.15707 4.49774Z" fill="white"/>
<path d="M4.16486 11.5688L3.73594 12.5578L3.30703 11.5688L2.32031 11.1422L3.30703 10.7133L3.73594 9.72656L4.16486 10.7133L5.15156 11.1422L4.16486 11.5688Z" fill="white"/>
<path d="M9.07238 3.73586C9.07302 3.59067 9.12165 3.44977 9.21064 3.33508L8.27314 3.07961C8.15622 3.05272 8.03787 3.11847 7.99894 3.23195L7.60988 4.49756H9.72627C9.77667 4.49827 9.82692 4.50375 9.87627 4.51399L9.46613 4.33586C9.22703 4.23217 9.07234 3.99645 9.07238 3.73586Z" fill="white"/>
<path d="M11.5711 4.16486L11.1422 5.15156L10.7133 4.16486L9.72656 3.73594L10.7133 3.30703L11.1422 2.32031L11.5711 3.30703L12.5578 3.73594L11.5711 4.16486Z" fill="white"/>
<path d="M7.63564 10.2163L7.98252 9.76397C8.0472 9.68132 8.1267 9.61138 8.21689 9.55772C8.31394 9.49975 8.42145 9.4615 8.53332 9.44522L8.93175 9.39133L8.90127 9.1804C8.75442 9.17342 8.61555 9.11151 8.5122 9.00696C8.35185 8.80915 8.21209 8.59555 8.09502 8.36946H6.78252C6.66638 8.59607 6.52654 8.80978 6.36533 9.00696C6.25197 9.11961 6.09859 9.1828 5.93877 9.18272C5.84502 9.18272 5.54033 9.18272 5.55908 8.86633C5.57783 8.54991 5.7747 7.37571 5.7747 7.36633C5.84682 7.04008 6.13212 6.80507 6.46613 6.79678C6.68847 6.83203 6.89682 6.9277 7.06845 7.07335H7.80908C7.98012 6.92818 8.1876 6.83256 8.40908 6.79678C8.74658 6.80436 9.03372 7.04481 9.1005 7.37571C9.1005 7.37571 9.16377 7.7671 9.22238 8.15383L9.38408 7.94053C9.44753 7.85545 9.52718 7.78375 9.61845 7.7296C9.71112 7.67406 9.8139 7.63738 9.92082 7.62178H9.9372V5.36946C9.93477 5.25358 9.8421 5.15987 9.72627 5.15616H5.15595C5.03558 5.15616 4.938 5.25373 4.938 5.37415V10.3335L5.40675 10.5421C5.6091 10.6303 5.75355 10.8144 5.79113 11.032H7.4997L7.47394 10.8351C7.4427 10.6155 7.50098 10.3925 7.63564 10.2163ZM11.6903 7.51866L12.6278 4.47178C12.6314 4.45243 12.6314 4.43256 12.6278 4.41321L12.0653 4.65928L11.7396 5.40928C11.6438 5.62948 11.4351 5.77948 11.1959 5.80003C10.9566 5.82058 10.7253 5.70838 10.5935 5.50772V7.51633L11.2005 7.43428C11.3685 7.41186 11.5395 7.4413 11.6903 7.51866Z" fill="white"/>
<path d="M13.5059 10.8844L13.3348 9.62587C13.3297 9.57828 13.3051 9.53497 13.267 9.50613C13.2288 9.4773 13.1804 9.46548 13.1333 9.47351L11.6872 9.67038L11.4833 8.23601C11.4766 8.18906 11.4513 8.1468 11.413 8.11882C11.375 8.08961 11.3268 8.07693 11.2794 8.08368L10.0137 8.25712C9.98985 8.26065 9.96678 8.2686 9.94578 8.28056C9.92606 8.29218 9.90862 8.3073 9.89422 8.32507L9.54735 8.77976C9.51813 8.81775 9.50546 8.8659 9.51217 8.91337L9.65516 9.94695L8.61217 10.0899C8.58828 10.0935 8.56522 10.1014 8.54422 10.1134C8.52386 10.1251 8.50627 10.1411 8.49266 10.1602L8.15516 10.6149C8.12583 10.6519 8.11308 10.6995 8.11998 10.7462L8.2911 12.0048C8.30673 12.1023 8.39703 12.1698 8.49498 12.1571L9.93873 11.9532L10.1356 13.3876C10.1407 13.4351 10.1653 13.4785 10.2035 13.5073C10.2417 13.5361 10.29 13.548 10.3372 13.5399L11.6052 13.3665C11.6518 13.3606 11.6941 13.3361 11.7223 13.2985L12.0692 12.8438C12.0835 12.8258 12.0938 12.8051 12.0997 12.7829C12.1055 12.7598 12.1055 12.7356 12.0997 12.7126L11.959 11.6766L13.002 11.5337C13.0491 11.527 13.0918 11.5027 13.1215 11.4657L13.4731 11.0157C13.4856 10.9966 13.4958 10.9762 13.5036 10.9548C13.509 10.9317 13.5098 10.9078 13.5059 10.8844Z" fill="url(#paint0_linear_1_79)"/>
<path d="M13.5062 10.8844L13.3351 9.62587C13.3299 9.57828 13.3054 9.53497 13.2672 9.50613C13.2291 9.4773 13.1807 9.46548 13.1336 9.47351L11.6874 9.67038L11.4836 8.23601C11.4769 8.18906 11.4515 8.1468 11.4132 8.11882C11.3752 8.08961 11.3271 8.07693 11.2796 8.08368L10.014 8.25712C9.99019 8.26102 9.9672 8.26893 9.94605 8.28056C9.92633 8.29218 9.90885 8.3073 9.89449 8.32507C9.88061 8.34416 9.8703 8.36561 9.864 8.38837C9.86048 8.41166 9.86048 8.43536 9.864 8.45868L10.0773 9.89306L8.63355 10.0899C8.60963 10.0935 8.58656 10.1014 8.56556 10.1134C8.5452 10.1251 8.52765 10.1411 8.514 10.1602C8.49885 10.1776 8.48835 10.1986 8.48355 10.2212C8.47879 10.2444 8.47879 10.2683 8.48355 10.2915L8.65463 11.5501C8.6613 11.597 8.68665 11.6393 8.72494 11.6673C8.76293 11.6965 8.81108 11.7091 8.85855 11.7024L10.3023 11.5032L10.4992 12.9376C10.5059 12.9846 10.5302 13.0273 10.5671 13.0571C10.6055 13.0855 10.6536 13.0973 10.7007 13.0899L11.9523 12.9165C11.9759 12.9147 11.9985 12.9066 12.0179 12.8931C12.0381 12.8821 12.0558 12.867 12.0695 12.8485C12.0837 12.8305 12.0941 12.8098 12.0999 12.7876C12.1058 12.7645 12.1058 12.7403 12.0999 12.7173L11.9031 11.2829L13.3586 11.0837C13.3825 11.0805 13.4057 11.0725 13.4265 11.0602C13.4463 11.0487 13.4638 11.0336 13.4781 11.0157C13.4906 10.9966 13.5008 10.9762 13.5086 10.9548C13.5125 10.9314 13.5116 10.9075 13.5062 10.8844Z" fill="url(#paint1_linear_1_79)"/>
<path d="M12.5103 9.81086C12.284 9.84229 12.0991 10.0075 12.0426 10.229C11.9861 10.4504 12.0692 10.684 12.2528 10.82C12.4365 10.956 12.6841 10.9675 12.8795 10.8489C13.0749 10.7303 13.1791 10.5053 13.1431 10.2796C13.095 9.97714 12.8137 9.76879 12.5103 9.81086ZM12.6369 10.7484C12.4352 10.7745 12.2498 10.6341 12.2203 10.4329C12.1907 10.2317 12.328 10.0439 12.5287 10.011C12.7294 9.97815 12.9194 10.1123 12.9556 10.3124C12.9704 10.4113 12.945 10.512 12.8851 10.5921C12.8253 10.6722 12.7359 10.7251 12.6369 10.739V10.7484ZM10.6752 8.4093L10.2064 9.56479L11.451 9.39604L10.6752 8.4093ZM10.5088 9.3351L10.7291 8.78198L11.1041 9.25073L10.5088 9.3351ZM8.78613 10.371L8.9244 11.3859L9.93926 11.2499L9.80096 10.2351L8.78613 10.371ZM9.08613 11.1726L8.99939 10.5327L9.63926 10.446L9.72832 11.0859L9.08613 11.1726Z" fill="#C3862C"/>
<path d="M11.3417 12.1875L11.7823 12.5203L11.6675 12.6727L11.2269 12.3305L10.8917 12.7711L10.7417 12.6562L11.0769 12.2156L10.6362 11.8828L10.7511 11.7305L11.1917 12.0656L11.5245 11.625L11.6745 11.7399L11.3417 12.1875Z" fill="#C3862C"/>
<defs>
<linearGradient id="paint0_linear_1_79" x1="112.025" y1="111.383" x2="447.754" y2="447.113" gradientUnits="userSpaceOnUse">
<stop stop-color="#C3862C"/>
<stop offset="1" stop-color="#986D29"/>
</linearGradient>
<linearGradient id="paint1_linear_1_79" x1="81.54" y1="124.563" x2="436.868" y2="394.575" gradientUnits="userSpaceOnUse">
<stop offset="0.03" stop-color="#FDE64E"/>
<stop offset="1" stop-color="#FCC013"/>
</linearGradient>
</defs>
</svg>
