<svg width="12" height="11" viewBox="0 0 12 11" fill="none" xmlns="http://www.w3.org/2000/svg">
<path fill-rule="evenodd" clip-rule="evenodd" d="M8.81436 5.27576C9.48858 5.27452 10.1356 5.54134 10.613 6.01744C11.0905 6.4935 11.359 7.13985 11.3597 7.81406C11.3597 9.21499 10.2247 10.351 8.82374 10.3523C7.42278 10.3536 6.2857 9.21967 6.28311 7.81875C6.28053 6.41779 7.41344 5.27966 8.81436 5.27576ZM9.83856 8.79375C9.75614 9.11347 9.62657 9.41918 9.45419 9.7008C9.86429 9.56126 10.218 9.29227 10.462 8.93437L10.3069 8.89297C10.1515 8.85394 9.99501 8.82187 9.83856 8.79375ZM7.7878 8.79142C7.57769 8.82746 7.3696 8.87441 7.16436 8.93205L7.20839 8.99422C7.44925 9.32096 7.7845 9.56696 8.16981 9.69844C7.99825 9.4167 7.86951 9.111 7.7878 8.79142ZM9.29249 8.71875C8.97426 8.69295 8.65446 8.69295 8.33624 8.71875C8.43561 9.06379 8.60121 9.38617 8.82374 9.66795C9.04135 9.38576 9.20069 9.06311 9.29249 8.71875ZM10.7057 7.17656C10.4538 7.25606 10.197 7.31947 9.937 7.36639C9.95339 7.51271 9.96119 7.65982 9.96044 7.80701C9.96119 7.95502 9.95339 8.10292 9.937 8.25C10.1974 8.29811 10.4543 8.36389 10.7057 8.44687C10.7738 8.2428 10.8086 8.02916 10.8089 7.81406C10.8091 7.59739 10.7743 7.3821 10.7057 7.17656ZM6.93231 7.18125C6.86264 7.38416 6.82701 7.5972 6.82686 7.81174L6.81981 7.81406C6.82229 8.02897 6.86028 8.24201 6.93231 8.44451C7.18326 8.36422 7.43931 8.30077 7.69874 8.25469C7.6753 8.11406 7.6753 7.96642 7.6753 7.81174C7.67571 7.66455 7.68355 7.51747 7.69874 7.37107C7.43954 7.32386 7.18356 7.26049 6.93231 7.18125ZM9.39561 7.44375C9.20342 7.47187 9.00888 7.47187 8.81436 7.47187C8.61981 7.47187 8.42763 7.4625 8.23311 7.44375C8.2081 7.68922 8.2081 7.93657 8.23311 8.18201V8.18437C8.61974 8.14845 9.00884 8.14766 9.39561 8.18201C9.42374 7.93672 9.42374 7.68904 9.39561 7.44375ZM8.812 5.95545C8.59709 6.23936 8.43801 6.56145 8.34325 6.90469C8.66148 6.93049 8.98128 6.93049 9.2995 6.90469L9.29178 6.90491L9.26463 6.81334C9.17609 6.53396 9.04311 6.27064 8.87088 6.03352L8.812 5.95545ZM2.33856 1.80236C2.55918 1.80326 2.77596 1.8597 2.96905 1.96642C2.95731 2.04844 2.95731 2.13049 2.95731 2.21483C2.9569 2.85431 3.18366 3.47314 3.59718 3.96094C3.55964 4.04239 3.51573 4.12076 3.46593 4.19531C2.37861 4.6128 1.81893 5.48156 1.80659 6.80156L1.80655 6.88826H0.058105C0.058105 5.88514 0.491699 5.33906 1.51592 5.16795C1.58857 5.15389 1.71514 5.12576 1.7503 5.02268C1.75229 5.01075 1.75292 4.99871 1.75229 4.98667L1.7503 4.96875V4.67812C1.23925 4.41367 0.922285 3.88237 0.932324 3.30705C0.919049 2.92095 1.0598 2.54542 1.32357 2.2632C1.58734 1.98097 1.9525 1.81519 2.33856 1.80236ZM5.42999 0.257812C6.4378 0.257812 7.25811 1.13674 7.25811 2.21955C7.26902 2.94604 6.88004 3.61777 6.24921 3.97095L6.18936 4.00312V4.37344C6.19056 4.39725 6.1945 4.42084 6.20106 4.44375C6.24794 4.57736 6.41436 4.61486 6.51749 4.63125C6.84445 4.67857 7.16129 4.77994 7.45499 4.93125C6.66891 5.30201 6.06854 5.97581 5.78961 6.79635L5.7628 6.87892H2.44638C2.44638 5.56875 3.01124 4.86562 4.35186 4.63125C4.45499 4.61486 4.62138 4.57736 4.66825 4.44375C4.67016 4.42819 4.6708 4.41251 4.67016 4.39684L4.66825 4.37344V4.00312C4.0036 3.65865 3.59072 2.96809 3.60186 2.21955C3.56627 1.17349 4.38404 0.295972 5.42999 0.257812ZM8.17919 5.925L8.1745 5.92736C7.76421 6.069 7.41123 6.34054 7.16905 6.70076L7.32333 6.74321C7.47816 6.78341 7.63469 6.81697 7.79249 6.84375C7.87529 6.52009 8.00564 6.21045 8.17919 5.925ZM9.46356 5.92969C9.63554 6.21236 9.76502 6.51877 9.84794 6.83906C10.0582 6.80284 10.2663 6.7551 10.4714 6.69607L10.4658 6.69727L10.4227 6.63622C10.1974 6.32985 9.88953 6.09386 9.53508 5.95594L9.46356 5.92969ZM8.53311 1.80705C8.9194 1.81924 9.28491 1.98487 9.54884 2.26721C9.81273 2.54959 9.95328 2.92549 9.93936 3.31174C9.94596 3.86145 9.65451 4.37175 9.17763 4.64531C9.0508 4.63118 8.92322 4.62491 8.79561 4.62656C8.599 4.62742 8.40288 4.64625 8.20968 4.68281C7.96881 4.47442 7.69259 4.31093 7.39405 4.2C7.34369 4.12575 7.29978 4.04734 7.2628 3.96563C7.67455 3.47696 7.90034 2.85851 7.9003 2.21955C7.90503 2.13679 7.90503 2.05384 7.9003 1.97107C8.09421 1.86439 8.31179 1.80799 8.53311 1.80705Z" fill="white"/>
</svg>
