<svg width="15" height="15" viewBox="0 0 15 15" fill="none" xmlns="http://www.w3.org/2000/svg">
<path d="M5.8763 4.3875C5.64193 4.50469 5.43099 4.66406 5.21302 4.8H3.66614C3.26302 4.55156 2.86927 4.21875 2.40755 4.21875C1.69988 4.23698 1.0993 4.74314 0.961459 5.4375C0.961459 5.45156 0.548962 7.94062 0.509118 8.57109C0.469274 9.20156 1.10443 9.23672 1.30365 9.23672C1.63814 9.23641 1.95902 9.10418 2.19662 8.86875C2.5332 8.45517 2.82542 8.00742 3.06849 7.53281H5.80833C6.05227 8.00745 6.34528 8.4552 6.68255 8.86875C6.91915 9.10427 7.23936 9.23655 7.57317 9.23672C7.77239 9.23672 8.40989 9.23672 8.37005 8.57109C8.33724 8.06016 8.06068 6.32109 7.95521 5.67891C7.09634 5.60341 6.32457 5.12398 5.8763 4.3875Z" fill="white"/>
<path d="M8.18975 1.75327C8.48358 1.75327 8.72178 1.51507 8.72178 1.22124C8.72178 0.927407 8.48358 0.689209 8.18975 0.689209C7.89591 0.689209 7.65771 0.927407 7.65771 1.22124C7.65771 1.51507 7.89591 1.75327 8.18975 1.75327Z" fill="white"/>
<path d="M6.31641 3.90466L6.45 4.13435L8.51484 3.09841L8.24766 2.63904L6.31641 3.90466Z" fill="white"/>
<path d="M6.834 2.99068C6.834 2.62808 6.97835 2.28042 7.23518 2.02447C7.49201 1.76853 7.84017 1.62536 8.20275 1.62661V0.897705C7.0514 0.897705 6.11622 1.82762 6.10978 2.97896C6.10624 3.15964 6.12595 3.34001 6.16837 3.51568L6.83634 3.0774C6.834 3.04693 6.834 3.01646 6.834 2.99068ZM9.12619 1.12271C9.13254 1.15518 9.13645 1.18808 9.1379 1.22114C9.13711 1.34 9.11407 1.45765 9.06994 1.56802C9.59215 1.89934 9.88753 2.49291 9.83693 3.1093C9.78633 3.72566 9.39808 4.2631 8.82883 4.50483C8.25958 4.74655 7.60326 4.65263 7.12462 4.26099L6.72384 4.45318C7.30453 5.04605 8.18168 5.2378 8.95678 4.94131C9.7319 4.6448 10.2572 3.91662 10.2939 3.08757C10.3307 2.25851 9.87199 1.48667 9.12619 1.12271Z" fill="white"/>
<path d="M14.0456 11.1726L13.8581 9.7945C13.8515 9.7432 13.8245 9.69672 13.7831 9.6656C13.7413 9.63487 13.6893 9.62142 13.6378 9.6281L12.0534 9.84372L11.8402 8.27341C11.8327 8.22182 11.8048 8.17537 11.7628 8.1445C11.7219 8.11204 11.6691 8.09843 11.6175 8.107L10.23 8.29685C10.2041 8.29935 10.1791 8.30821 10.1574 8.32263C10.1346 8.33376 10.1152 8.35075 10.1011 8.37185L9.72142 8.86872C9.6894 8.90995 9.67508 8.96224 9.68157 9.01403L9.84329 10.1484L8.69485 10.3125C8.66879 10.3175 8.64352 10.3262 8.61985 10.3383C8.59862 10.3517 8.58029 10.3692 8.56595 10.3898L8.18392 10.8867C8.15272 10.9283 8.13924 10.9805 8.14642 11.032L8.33626 12.4078C8.34238 12.4593 8.36952 12.5059 8.41126 12.5367C8.45251 12.5687 8.50477 12.583 8.55657 12.5765L10.1386 12.3586L10.3542 13.9289C10.3603 13.9804 10.3875 14.027 10.4292 14.0578C10.4705 14.0898 10.5227 14.1041 10.5745 14.0976L11.9527 13.8984C12.0069 13.894 12.0572 13.8688 12.0933 13.8281C12.0933 13.8281 12.4566 13.3593 12.473 13.3312C12.4881 13.3108 12.4992 13.2877 12.5058 13.2633C12.5118 13.2378 12.5118 13.2113 12.5058 13.1859L12.3511 12.0539L13.4925 11.8968C13.5445 11.8903 13.5917 11.8633 13.6238 11.8218L14.0034 11.3226C14.0181 11.3028 14.0292 11.2806 14.0363 11.257C14.0463 11.2301 14.0495 11.2011 14.0456 11.1726Z" fill="url(#paint0_linear_1_982)"/>
<path d="M14.0465 11.1726L13.859 9.7945C13.8524 9.7432 13.8254 9.69672 13.784 9.6656C13.7422 9.63487 13.6902 9.62142 13.6387 9.6281L12.0543 9.84372L11.841 8.27341C11.8336 8.22182 11.8057 8.17537 11.7637 8.1445C11.7227 8.11204 11.67 8.09843 11.6184 8.107L10.2309 8.29685C10.2049 8.29935 10.18 8.30821 10.1582 8.32263C10.1179 8.34921 10.0893 8.39034 10.0785 8.43747C10.0737 8.46302 10.0737 8.48927 10.0785 8.51482L10.2942 10.0851L8.69573 10.3125C8.66965 10.3175 8.64441 10.3262 8.62073 10.3383C8.5995 10.3517 8.58117 10.3692 8.56683 10.3898C8.55063 10.409 8.53866 10.4313 8.53167 10.4554C8.52818 10.4811 8.52818 10.5071 8.53167 10.5328L8.72152 11.9109C8.72815 11.9622 8.7552 12.0087 8.79652 12.0398C8.83812 12.071 8.89034 12.0845 8.94183 12.0773L10.5239 11.8617L10.7395 13.432C10.7461 13.4833 10.7732 13.5298 10.8145 13.5609C10.8562 13.5919 10.9083 13.6053 10.9598 13.5984L12.3473 13.4086C12.374 13.4061 12.3997 13.3972 12.4223 13.3828C12.4436 13.3695 12.4626 13.3529 12.4785 13.3336C12.4936 13.3132 12.5048 13.2901 12.5114 13.2656C12.5174 13.2402 12.5174 13.2137 12.5114 13.1883L12.2957 11.6179L13.8801 11.4023C13.9056 11.3978 13.9301 11.3891 13.9528 11.3765C13.9747 11.3632 13.9938 11.3457 14.009 11.325C14.0236 11.3051 14.0347 11.2829 14.0418 11.2593C14.0507 11.2313 14.0524 11.2015 14.0465 11.1726Z" fill="url(#paint1_linear_1_982)"/>
<path d="M12.9537 9.99853C12.6184 10.0493 12.3871 10.3613 12.436 10.6969C12.4848 11.0324 12.7956 11.2655 13.1314 11.2184C13.4673 11.1714 13.702 10.8619 13.6568 10.5259C13.6348 10.3621 13.548 10.214 13.4158 10.1149C13.2836 10.0157 13.1171 9.97381 12.9537 9.99853ZM13.0943 11.0134C12.8708 11.0443 12.6642 10.8887 12.6322 10.6653C12.6001 10.4419 12.7546 10.2346 12.9778 10.2014C13.2011 10.1682 13.4092 10.3216 13.4436 10.5446C13.461 10.6536 13.4338 10.765 13.368 10.8536C13.3023 10.9423 13.2037 11.0007 13.0943 11.0157V11.0134ZM10.9451 8.46338L10.4412 9.72898L11.8006 9.5415L10.9451 8.46338ZM10.7646 9.47588L10.999 8.87117L11.4092 9.38682L10.7646 9.47588ZM8.87793 10.6126L9.02793 11.7188L10.1412 11.5665L9.98887 10.4556L8.87793 10.6126ZM9.20606 11.4845L9.10996 10.7813L9.81309 10.6853L9.90918 11.3884L9.20606 11.4845Z" fill="#C3862C"/>
<path d="M11.6742 12.5929L12.143 12.9585L12.0187 13.1226L11.5359 12.757L11.1703 13.2398L11.0156 13.1249L11.3813 12.6421L10.8984 12.2765L11.025 12.1124L11.5055 12.4781L11.8734 11.9952L12.0375 12.1218L11.6742 12.5929Z" fill="#C3862C"/>
<defs>
<linearGradient id="paint0_linear_1_982" x1="122.752" y1="121.092" x2="489.502" y2="487.842" gradientUnits="userSpaceOnUse">
<stop stop-color="#C3862C"/>
<stop offset="1" stop-color="#986D29"/>
</linearGradient>
<linearGradient id="paint1_linear_1_982" x1="89.8519" y1="135.797" x2="478.978" y2="431.266" gradientUnits="userSpaceOnUse">
<stop offset="0.03" stop-color="#FDE64E"/>
<stop offset="1" stop-color="#FCC013"/>
</linearGradient>
</defs>
</svg>
