<svg width="11" height="11" viewBox="0 0 11 11" fill="none" xmlns="http://www.w3.org/2000/svg">
<path fill-rule="evenodd" clip-rule="evenodd" d="M10.3384 9.76795C10.3102 9.32969 10.0267 7.6 10.0243 7.58826C9.92613 7.1065 9.50804 6.75647 9.01649 6.74455C8.69541 6.74455 8.42118 6.97893 8.14229 7.14531H7.06885C6.7876 6.97188 6.51573 6.74455 6.19461 6.74455C5.70366 6.7567 5.28636 7.10688 5.18916 7.58826C5.18916 7.6 4.90086 9.32969 4.87274 9.76795C4.84461 10.2063 5.2876 10.2367 5.42586 10.2367C5.65851 10.2369 5.88179 10.1451 6.04698 9.98125C6.28146 9.69077 6.4849 9.37656 6.65399 9.04375H8.55948C8.7277 9.37705 8.93121 9.69138 9.16649 9.98125C9.3307 10.1451 9.55326 10.237 9.78524 10.2367C9.92354 10.2297 10.3689 10.2297 10.3384 9.76795ZM8.16104 3.25937H6.87899C7.29333 3.06542 7.55691 2.64809 7.55399 2.19063C7.55399 1.44297 6.99385 0.917969 6.19229 0.917969C5.69305 0.917969 5.06961 1.27422 4.67823 1.9C4.28448 1.28125 3.66104 0.917969 3.15711 0.917969C2.35555 0.917969 1.79541 1.44297 1.79541 2.19063C1.79253 2.64809 2.05608 3.06542 2.47041 3.25937H1.19307C1.07269 3.25937 0.975098 3.35695 0.975098 3.47736V4.67736C0.976384 4.7968 1.0736 4.89299 1.19307 4.89299H4.13211V3.25233H5.22198V4.89299H8.16104C8.21864 4.89359 8.27406 4.87116 8.31501 4.83066C8.35596 4.79012 8.37899 4.73492 8.37899 4.67736V3.47736C8.37899 3.35695 8.28141 3.25937 8.16104 3.25937ZM2.56416 2.19063C2.56608 2.04111 2.63219 1.89966 2.7457 1.80231C2.85918 1.70495 3.00906 1.66114 3.15711 1.68203C3.48993 1.68203 4.09461 2.09924 4.25166 2.87031C3.40791 2.83518 2.56416 2.6875 2.56416 2.19063ZM5.09774 2.87031C5.25479 2.09924 5.85948 1.68203 6.19229 1.68203C6.34109 1.65966 6.49229 1.70279 6.60685 1.80029C6.72145 1.89783 6.78824 2.04018 6.78993 2.19063C6.78993 2.6875 5.94618 2.83518 5.09774 2.87031ZM1.41104 7.84375C1.41104 8.0836 1.60478 8.27841 1.84461 8.27969H4.13211V5.43906H1.41104V7.84375ZM5.22198 6.41406C5.50686 6.20541 5.85085 6.09291 6.20399 6.09295C6.59219 6.11395 6.96449 6.25386 7.27041 6.49375H7.95479V5.43906H5.22198V6.41406Z" fill="white"/>
</svg>
