<svg width="15" height="15" viewBox="0 0 15 15" fill="none" xmlns="http://www.w3.org/2000/svg">
<path d="M8.21445 9.55554C8.3112 9.49693 8.41886 9.45864 8.53088 9.44304L8.92931 9.38915L8.87539 9.00241C8.84497 8.78289 8.90318 8.56025 9.03713 8.38366L9.37463 7.92898C9.43886 7.844 9.51833 7.77166 9.609 7.71571C9.7011 7.66119 9.80303 7.62538 9.909 7.61023L11.184 7.43679C11.4027 7.40728 11.6243 7.4654 11.8004 7.59853C11.9771 7.7315 12.0929 7.92999 12.1215 8.14929L12.2293 8.93446L12.4402 8.90634C12.7574 8.23213 12.7073 7.44253 12.3077 6.81373C11.9079 6.18496 11.2142 5.80453 10.4691 5.80554C10.4106 5.80554 10.3543 5.80554 10.2957 5.80554C9.82583 4.52705 8.53901 3.73893 7.18661 3.90136C5.83421 4.06378 4.7706 5.13418 4.61681 6.48759C4.05345 6.58378 3.5664 6.93538 3.29769 7.43975C3.02899 7.94413 3.00893 8.5445 3.24337 9.06571L2.04337 9.75478C1.95906 9.80473 1.91847 9.90485 1.94416 9.99943C1.96986 10.094 2.05552 10.1598 2.15352 10.1602H7.67775L7.98244 9.76179C8.04686 9.67974 8.12542 9.60991 8.21445 9.55554Z" fill="white"/>
<path d="M13.5059 10.8844L13.3349 9.62587C13.3297 9.57828 13.3052 9.53497 13.267 9.50613C13.2288 9.4773 13.1804 9.46548 13.1333 9.47351L11.6872 9.67038L11.4833 8.23601C11.4766 8.18906 11.4513 8.1468 11.413 8.11882C11.375 8.08961 11.3268 8.07693 11.2794 8.08368L10.0137 8.25712C9.98985 8.26065 9.96679 8.2686 9.94579 8.28056C9.92606 8.29218 9.90863 8.3073 9.89423 8.32507L9.54735 8.77976C9.51814 8.81775 9.50546 8.8659 9.51218 8.91337L9.65516 9.94695L8.61218 10.0899C8.58829 10.0935 8.56523 10.1014 8.54423 10.1134C8.52386 10.1251 8.50628 10.1411 8.49266 10.1602L8.15516 10.6149C8.12584 10.6519 8.11309 10.6995 8.11999 10.7462L8.2911 12.0048C8.30674 12.1023 8.39704 12.1698 8.49499 12.1571L9.93874 11.9532L10.1356 13.3876C10.1408 13.4351 10.1653 13.4785 10.2035 13.5073C10.2417 13.5361 10.29 13.548 10.3372 13.5399L11.6052 13.3665C11.6518 13.3606 11.6941 13.3361 11.7224 13.2985L12.0692 12.8438C12.0835 12.8258 12.0938 12.8051 12.0997 12.7829C12.1055 12.7598 12.1055 12.7356 12.0997 12.7126L11.9591 11.6766L13.002 11.5337C13.0491 11.527 13.0918 11.5027 13.1216 11.4657L13.4731 11.0157C13.4856 10.9966 13.4958 10.9762 13.5036 10.9548C13.509 10.9317 13.5098 10.9078 13.5059 10.8844Z" fill="url(#paint0_linear_1_56)"/>
<path d="M13.5062 10.8844L13.3351 9.62587C13.3299 9.57828 13.3054 9.53497 13.2672 9.50613C13.2291 9.4773 13.1807 9.46548 13.1336 9.47351L11.6874 9.67038L11.4836 8.23601C11.4769 8.18906 11.4515 8.1468 11.4132 8.11882C11.3752 8.08961 11.3271 8.07693 11.2796 8.08368L10.014 8.25712C9.99019 8.26102 9.9672 8.26893 9.94605 8.28056C9.92633 8.29218 9.90885 8.3073 9.89449 8.32507C9.88061 8.34416 9.8703 8.36561 9.864 8.38837C9.86048 8.41166 9.86048 8.43536 9.864 8.45868L10.0773 9.89306L8.63355 10.0899C8.60963 10.0935 8.58656 10.1014 8.56556 10.1134C8.5452 10.1251 8.52765 10.1411 8.514 10.1602C8.49885 10.1776 8.48835 10.1986 8.48355 10.2212C8.47879 10.2444 8.47879 10.2683 8.48355 10.2915L8.65463 11.5501C8.6613 11.597 8.68665 11.6393 8.72494 11.6673C8.76293 11.6965 8.81108 11.7091 8.85855 11.7024L10.3023 11.5032L10.4992 12.9376C10.5059 12.9846 10.5302 13.0273 10.5671 13.0571C10.6055 13.0855 10.6536 13.0973 10.7007 13.0899L11.9523 12.9165C11.9759 12.9147 11.9985 12.9066 12.0179 12.8931C12.0381 12.8821 12.0558 12.867 12.0695 12.8485C12.0837 12.8305 12.0941 12.8098 12.0999 12.7876C12.1058 12.7645 12.1058 12.7403 12.0999 12.7173L11.9031 11.2829L13.3585 11.0837C13.3825 11.0805 13.4057 11.0725 13.4265 11.0602C13.4463 11.0487 13.4638 11.0336 13.4781 11.0157C13.4906 10.9966 13.5008 10.9762 13.5086 10.9548C13.5125 10.9314 13.5116 10.9075 13.5062 10.8844Z" fill="url(#paint1_linear_1_56)"/>
<path d="M12.5103 9.81086C12.284 9.84229 12.0991 10.0075 12.0426 10.229C11.9861 10.4504 12.0692 10.684 12.2528 10.82C12.4365 10.956 12.6842 10.9675 12.8795 10.8489C13.0749 10.7303 13.1791 10.5053 13.1432 10.2796C13.095 9.97714 12.8137 9.76879 12.5103 9.81086ZM12.6369 10.7484C12.4352 10.7745 12.2498 10.6341 12.2203 10.4329C12.1907 10.2317 12.328 10.0439 12.5287 10.011C12.7294 9.97815 12.9194 10.1123 12.9557 10.3124C12.9704 10.4113 12.945 10.512 12.8851 10.5921C12.8253 10.6722 12.7359 10.7251 12.6369 10.739V10.7484ZM10.6752 8.4093L10.2064 9.56479L11.451 9.39604L10.6752 8.4093ZM10.5088 9.3351L10.7291 8.78198L11.1041 9.25073L10.5088 9.3351ZM8.78614 10.371L8.9244 11.3859L9.93926 11.2499L9.80096 10.2351L8.78614 10.371ZM9.08614 11.1726L8.9994 10.5327L9.63926 10.446L9.72832 11.0859L9.08614 11.1726Z" fill="#C3862C"/>
<path d="M11.3417 12.1875L11.7823 12.5203L11.6675 12.6727L11.2269 12.3305L10.8917 12.7711L10.7417 12.6562L11.0769 12.2156L10.6362 11.8828L10.7511 11.7305L11.1917 12.0656L11.5245 11.625L11.6745 11.7399L11.3417 12.1875Z" fill="#C3862C"/>
<defs>
<linearGradient id="paint0_linear_1_56" x1="112.025" y1="111.383" x2="447.754" y2="447.113" gradientUnits="userSpaceOnUse">
<stop stop-color="#C3862C"/>
<stop offset="1" stop-color="#986D29"/>
</linearGradient>
<linearGradient id="paint1_linear_1_56" x1="81.5197" y1="124.498" x2="436.849" y2="394.511" gradientUnits="userSpaceOnUse">
<stop offset="0.03" stop-color="#FDE64E"/>
<stop offset="1" stop-color="#FCC013"/>
</linearGradient>
</defs>
</svg>
