<svg width="15" height="9" viewBox="0 0 15 9" fill="none" xmlns="http://www.w3.org/2000/svg">
<path fill-rule="evenodd" clip-rule="evenodd" d="M9.58541 7.64062C8.82941 7.97861 8.00873 8.1474 7.18073 8.13514C5.79086 8.13514 4.54868 7.71094 3.85493 7.00312C3.76399 6.90694 3.74953 6.76144 3.81979 6.6492C3.89089 6.53306 4.03455 6.48386 4.16198 6.53201C5.12291 6.91845 6.14531 7.12961 7.18073 7.15549C7.89555 7.1472 8.60565 7.03834 9.2901 6.83205L9.13305 6.41482C9.09821 6.31826 9.11693 6.21045 9.18229 6.13125C9.24739 6.05164 9.35074 6.01388 9.4518 6.03281L11.1393 6.32344C11.2406 6.34245 11.3248 6.4125 11.362 6.50857C11.3968 6.60517 11.3781 6.71299 11.3127 6.79219L10.2159 8.10232C10.1612 8.1687 10.0793 8.20665 9.99323 8.20549H9.94635C9.84004 8.19169 9.74996 8.12051 9.71198 8.02031L9.58541 7.64062ZM6.57368 0.75C7.33624 0.766875 7.96215 1.35836 8.02211 2.11875C8.02211 2.11875 8.13244 2.76581 8.241 3.46759L8.2734 3.67913C8.35549 4.221 8.42996 4.76014 8.44635 5.02969C8.48618 5.68594 7.85805 5.68594 7.66118 5.68594C7.33223 5.68556 7.01655 5.55596 6.78229 5.325C6.45248 4.91696 6.16508 4.47641 5.92448 4.01017H3.22447C2.98458 4.47682 2.69712 4.91745 2.36666 5.325C2.13238 5.55596 1.81673 5.68556 1.48775 5.68594C1.29322 5.68594 0.665094 5.68358 0.704938 5.02969C0.721303 4.76111 0.795392 4.22212 0.877025 3.68014L0.909242 3.46852C0.9776 3.02389 1.04664 2.60107 1.08808 2.35076L1.10022 2.2776C1.11695 2.17706 1.12681 2.11875 1.12681 2.11875C1.18783 1.35889 1.81315 0.767963 2.57525 0.75C3.02994 0.75 3.41666 1.07111 3.8151 1.31955H5.33618C5.37581 1.29469 5.41534 1.26911 5.45486 1.2432L5.57355 1.1649C5.89043 0.9555 6.2118 0.75 6.57368 0.75ZM12.0581 0.771075C12.9346 0.781688 13.6617 1.45219 13.7432 2.325C13.7877 2.5992 14.0268 4.04063 14.0573 4.52344C14.0874 4.80986 13.9955 5.09569 13.8042 5.31094C13.5528 5.55019 13.2129 5.67341 12.8667 5.6508C12.4394 5.65357 12.0307 5.47568 11.7417 5.16094C11.5475 4.92326 11.372 4.67096 11.2167 4.40625H9.92993C9.77408 4.6719 9.59775 4.92499 9.4026 5.1633C9.29021 5.29444 9.15221 5.40131 8.99711 5.47732C9.0474 5.31844 9.06728 5.15145 9.05573 4.98514C9.05104 4.88906 9.0393 4.78361 9.02291 4.65469C9.22961 4.38476 9.41306 4.09777 9.57135 3.79688H11.5752C11.7547 4.14307 11.9683 4.47045 12.2127 4.7742C12.3864 4.94771 12.6212 5.04615 12.8667 5.04844C13.012 5.04844 13.4784 5.05545 13.4479 4.5633C13.4174 4.07111 13.1292 2.39531 13.1292 2.39531C13.0836 1.83131 12.6191 1.39305 12.0534 1.38049C11.7159 1.38049 11.4276 1.61951 11.1346 1.80233H10.0026C9.70729 1.61483 9.41899 1.38049 9.08385 1.38049C8.88398 1.38128 8.68864 1.43989 8.52135 1.5492C8.45531 1.35446 8.35965 1.17109 8.23774 1.00545C8.49326 0.851925 8.78576 0.770888 9.08385 0.771075C9.48446 0.795638 9.86798 0.942 10.1831 1.19063H10.9589C11.2739 0.942 11.6575 0.795638 12.0581 0.771075Z" fill="white"/>
</svg>
