<svg width="12" height="9" viewBox="0 0 12 9" fill="none" xmlns="http://www.w3.org/2000/svg">
<path fill-rule="evenodd" clip-rule="evenodd" d="M7.34545 8.73289H8.09547V0.426729H7.34545V8.73289ZM8.84573 8.73289H9.59575V0.426729H8.84573V8.73289ZM10.3458 8.73289H11.0958V0.426729H10.3458V8.73289ZM6.5953 0.426636V8.73279H0.0947266V0.426636H6.5953ZM4.56187 4.73417C3.93733 4.73417 3.42932 5.2606 3.42932 5.90759C3.42932 6.55456 3.93733 7.08099 4.56187 7.08099C5.18662 7.08099 5.69488 6.55456 5.69488 5.90759C5.69488 5.2606 5.18662 4.73417 4.56187 4.73417ZM2.76728 4.82531L1.97866 5.64223L1.20484 4.84081L0.928938 5.12658L1.70275 5.928L0.935453 6.72293L1.21134 7.00826L1.97866 6.21333L2.76079 7.02375L3.03667 6.73842L2.25456 5.928L3.04319 5.11085L2.76728 4.82531ZM4.56196 5.13483C4.97345 5.13483 5.30816 5.48145 5.30816 5.90754C5.30816 6.33361 4.97345 6.68023 4.56196 6.68023C4.15047 6.68023 3.81597 6.33361 3.81597 5.90754C3.81597 5.48145 4.15047 5.13483 4.56196 5.13483ZM4.56006 2.10427L3.29596 4.41877H5.88299L4.56006 2.10427ZM3.03803 2.27307H0.967094V4.41877H3.03803V2.27307ZM4.56529 2.83472L5.26054 4.05148H3.90102L4.56529 2.83472ZM2.67041 2.65414V4.03744H1.33492V2.65414H2.67041Z" fill="white"/>
</svg>
