<svg width="13" height="9" viewBox="0 0 13 9" fill="none" xmlns="http://www.w3.org/2000/svg">
<path fill-rule="evenodd" clip-rule="evenodd" d="M0.893311 0.450073V8.75632H7.64096V0.450073H0.893311ZM6.04956 6.2907C5.8592 6.2907 5.6765 6.21577 5.54096 6.0821C5.35044 5.84583 5.18474 5.59057 5.04643 5.32039H3.48549C3.34583 5.59137 3.17769 5.84672 2.98393 6.0821C2.8487 6.21621 2.66579 6.29121 2.47534 6.2907C2.36284 6.2907 2.00659 6.2907 2.02299 5.91101C2.0394 5.53132 2.28081 4.13445 2.28081 4.12742C2.35981 3.7321 2.70277 3.44468 3.10581 3.43601C3.36831 3.43601 3.59331 3.62117 3.82065 3.76414H4.7019C4.93628 3.62117 5.15659 3.43601 5.41909 3.43601C5.82149 3.44642 6.16351 3.73303 6.24409 4.12742C6.24409 4.12742 6.47846 5.55242 6.5019 5.91101C6.52534 6.2696 6.16674 6.2907 6.0519 6.2907H6.04956ZM8.41909 0.450073H9.19721V8.75632H8.41909V0.450073ZM9.97768 0.450073H10.7558V8.75632H9.97768V0.450073ZM11.5363 0.450073H12.3144V8.75632H11.5363V0.450073Z" fill="white"/>
</svg>
