<svg width="15" height="15" viewBox="0 0 15 15" fill="none" xmlns="http://www.w3.org/2000/svg">
<path fill-rule="evenodd" clip-rule="evenodd" d="M7.63826 4.38281C7.77495 4.38409 7.88546 4.49456 7.8867 4.63125V8.52889L7.76719 8.54531C7.63913 8.56534 7.51594 8.60906 7.40389 8.67424C7.30241 8.73506 7.21331 8.8146 7.14139 8.90861L6.74531 9.42656C6.5907 9.62614 6.52309 9.87964 6.55781 10.1297L6.65861 10.8539H1.65469C1.52154 10.8528 1.41247 10.7478 1.40625 10.6149V4.63125C1.40752 4.49456 1.51801 4.38409 1.65469 4.38281H7.63826ZM5.76326 6.25781C5.50853 6.294 5.26856 6.39937 5.06955 6.5625H4.21875C4.0221 6.39679 3.78379 6.28815 3.52969 6.24844C3.14394 6.2583 2.81624 6.53347 2.73984 6.9117C2.73984 6.9117 2.50547 8.28045 2.49141 8.625C2.47734 8.96951 2.81953 8.9883 2.92734 8.9883C3.10952 8.98755 3.28429 8.91611 3.41484 8.78906C3.59502 8.56151 3.75206 8.31656 3.88358 8.05781H5.39063C5.52218 8.31656 5.67919 8.56151 5.85938 8.78906C5.98991 8.91611 6.1647 8.98755 6.34688 8.9883C6.45705 8.9883 6.81563 8.9883 6.78281 8.625C6.75 8.2617 6.5625 6.92344 6.54844 6.91642C6.47205 6.53816 6.14434 6.26299 5.75858 6.25312L5.76326 6.25781ZM9.00938 3.01172C9.14606 3.01299 9.25654 3.12348 9.25781 3.26016V6.47576C9.17576 6.49616 9.0969 6.5277 9.02344 6.56955C8.91885 6.63079 8.826 6.71014 8.7492 6.80393L8.63906 6.94687V3.88357C8.63779 3.74692 8.52731 3.63643 8.39063 3.63516H2.77734V3.26016C2.77862 3.12348 2.8891 3.01299 3.02578 3.01172H9.00938ZM10.3805 1.64062C10.5171 1.6419 10.6277 1.75239 10.6289 1.88906V6.27656L10.0055 6.36094V2.5125C10.0042 2.37582 9.8937 2.26533 9.75705 2.26406H4.14844V1.88906C4.14971 1.75239 4.26019 1.6419 4.39688 1.64062H10.3805Z" fill="white"/>
<path fill-rule="evenodd" clip-rule="evenodd" d="M10.8751 7.00308L9.43133 7.19996C9.40459 7.2021 9.37879 7.21095 9.35633 7.22572C9.33323 7.23836 9.31324 7.25598 9.29775 7.27728L8.90633 7.79527C8.87427 7.83828 8.85998 7.89198 8.8665 7.94527L9.0282 9.11715L7.83994 9.27885C7.81302 9.28353 7.78695 9.29223 7.76258 9.30465C7.7406 9.31886 7.72152 9.33716 7.70633 9.35853L7.31025 9.87416C7.27748 9.91683 7.26315 9.97087 7.27039 10.0242L7.46727 11.4562C7.47469 11.5098 7.50237 11.5584 7.54463 11.5921C7.58839 11.6245 7.64322 11.638 7.69695 11.6296L9.33758 11.3953L9.56025 13.0359C9.56708 13.0896 9.59595 13.138 9.63994 13.1695C9.68239 13.2027 9.73658 13.2171 9.78994 13.2093L11.2313 13.0125C11.2857 13.0057 11.3349 12.9769 11.3673 12.9328C11.3673 12.9328 11.747 12.4359 11.7634 12.4171C11.7782 12.3957 11.7893 12.3719 11.7962 12.3468C11.8021 12.3198 11.8021 12.2918 11.7962 12.2648L11.6345 11.0929L12.8228 10.9288C12.8756 10.9213 12.9235 10.8936 12.9563 10.8515L13.3595 10.3382C13.3749 10.3168 13.3868 10.2931 13.3946 10.2679C13.3982 10.2415 13.3982 10.2147 13.3946 10.1882L13.1978 8.75621C13.191 8.70307 13.1631 8.65492 13.1204 8.6226C13.077 8.58945 13.0221 8.57512 12.9681 8.58277L11.3274 8.81715L11.1048 7.17652C11.0984 7.1172 11.0657 7.06383 11.0157 7.03121C10.9806 7.00485 10.9377 6.99086 10.8938 6.99135H10.8751" fill="url(#paint0_linear_1_62)"/>
<path fill-rule="evenodd" clip-rule="evenodd" d="M9.4313 7.19998C9.4046 7.20249 9.37887 7.2113 9.3563 7.22574C9.3332 7.23838 9.31317 7.256 9.29769 7.2773C9.28141 7.29819 9.26949 7.32208 9.26255 7.34762C9.25662 7.37387 9.25662 7.40109 9.26255 7.4273L9.49692 9.06793L7.8563 9.3023C7.82937 9.30699 7.80331 9.31569 7.77894 9.3281C7.75696 9.34232 7.73787 9.36062 7.72269 9.38199C7.706 9.40172 7.694 9.42493 7.68755 9.44998C7.68162 9.47698 7.68162 9.50495 7.68755 9.53199L7.88206 10.964C7.89087 11.017 7.91934 11.0647 7.96175 11.0976C8.00487 11.1295 8.0585 11.1437 8.11175 11.1375L9.75237 10.9031L9.98675 12.5437C9.99297 12.5987 10.0218 12.6485 10.0662 12.6814C10.1106 12.7143 10.1668 12.7273 10.2211 12.7172L11.6625 12.5203C11.6897 12.5167 11.716 12.5079 11.7399 12.4945C11.762 12.4805 11.7818 12.4631 11.7985 12.4429C11.8133 12.4215 11.8243 12.3977 11.8313 12.3726C11.8361 12.3455 11.8361 12.3177 11.8313 12.2906L11.5969 10.65L13.2375 10.4156C13.2649 10.4112 13.2911 10.4017 13.3149 10.3875C13.3375 10.3742 13.3574 10.3567 13.3735 10.3359C13.3889 10.3145 13.4008 10.2908 13.4086 10.2656C13.4122 10.2391 13.4122 10.2124 13.4086 10.1859L13.2118 8.75387C13.205 8.70077 13.1771 8.65262 13.1344 8.62029C13.091 8.58714 13.0361 8.57278 12.9821 8.58043L11.3414 8.8148L11.1188 7.17418C11.1047 7.07398 11.0184 6.99977 10.9172 7.00074H10.875L9.4313 7.19998Z" fill="url(#paint1_linear_1_62)"/>
<path fill-rule="evenodd" clip-rule="evenodd" d="M12.4072 10.0242C12.2363 10.0482 12.0677 9.96682 11.9802 9.81799C11.8927 9.66915 11.9036 9.48225 12.0077 9.34455C12.1118 9.20681 12.2887 9.14546 12.4557 9.18907C12.6227 9.23269 12.747 9.37271 12.7705 9.54375C12.8012 9.77629 12.6394 9.99034 12.4072 10.0242ZM12.2619 8.96719C12.0043 9.00191 11.793 9.18847 11.7267 9.43984C11.6604 9.6912 11.7522 9.95771 11.9592 10.115C12.1662 10.2722 12.4475 10.2892 12.6719 10.1579C12.8963 10.0267 13.0194 9.77314 12.9838 9.51562C12.9341 9.16586 12.6122 8.92129 12.2619 8.96719ZM9.98615 8.4375L10.2369 7.80701L10.6612 8.34375L9.98615 8.4375ZM10.1737 7.38281L9.64865 8.7L11.0549 8.50549L10.1737 7.38281ZM8.3666 10.5187L8.26584 9.78982L8.99473 9.68906L9.09553 10.4203L8.3666 10.5187ZM8.02441 9.60938L8.18146 10.7672L9.33691 10.6078L9.1799 9.45236L8.02441 9.60938Z" fill="#C3862C"/>
<path fill-rule="evenodd" clip-rule="evenodd" d="M10.931 11.6648L11.4325 12.0445L11.3013 12.2156L10.8021 11.8359L10.42 12.3374L10.2489 12.2062L10.6286 11.7046L10.1294 11.3249L10.2583 11.1539L10.7599 11.5335L11.1396 11.0343L11.3106 11.1632L10.931 11.6648Z" fill="#C3862C"/>
<defs>
<linearGradient id="paint0_linear_1_62" x1="197.395" y1="119.867" x2="505.275" y2="489.799" gradientUnits="userSpaceOnUse">
<stop stop-color="#C3862C"/>
<stop offset="1" stop-color="#986D29"/>
</linearGradient>
<linearGradient id="paint1_linear_1_62" x1="9.99733" y1="140.649" x2="538.399" y2="542.408" gradientUnits="userSpaceOnUse">
<stop stop-color="#FDE64E"/>
<stop offset="1" stop-color="#FCC013"/>
</linearGradient>
</defs>
</svg>
