<svg width="23" height="22" viewBox="0 0 23 22" fill="none" xmlns="http://www.w3.org/2000/svg">
<path d="M10.322 0.495527C10.6443 -0.157362 11.5757 -0.157364 11.898 0.495525L14.6505 6.0702C14.7784 6.32947 15.0259 6.50917 15.3121 6.55074L21.4666 7.44468C22.1874 7.54938 22.4752 8.43481 21.9537 8.94302L17.5002 13.2823C17.2931 13.4841 17.1986 13.7749 17.2475 14.0598L18.2988 20.187C18.4219 20.9046 17.6684 21.4518 17.0238 21.113L11.5189 18.2202C11.2629 18.0856 10.9571 18.0856 10.7011 18.2202L5.19629 21.113C4.55158 21.4518 3.79808 20.9046 3.92121 20.187L4.97253 14.0598C5.02143 13.7749 4.92692 13.4841 4.7198 13.2823L0.266343 8.94302C-0.25523 8.43481 0.0325792 7.54938 0.753377 7.44468L6.90791 6.55074C7.19413 6.50917 7.44157 6.32947 7.56958 6.0702L10.322 0.495527Z" fill="#FFC700"/>
</svg>
