<svg width="15" height="15" viewBox="0 0 15 15" fill="none" xmlns="http://www.w3.org/2000/svg">
<g clip-path="url(#clip0_64_1822)">
<path d="M6.97186 0.340612C7.18954 -0.120047 7.81866 -0.120048 8.03635 0.34061L9.89546 4.27393C9.98189 4.45687 10.149 4.58366 10.3424 4.61299L14.4994 5.24373C14.9862 5.3176 15.1806 5.94233 14.8283 6.30091L11.8203 9.36258C11.6804 9.50496 11.6166 9.71013 11.6496 9.91116L12.3597 14.2343C12.4428 14.7406 11.9339 15.1267 11.4985 14.8877L7.78032 12.8466C7.60739 12.7516 7.40082 12.7516 7.22788 12.8466L3.50976 14.8877C3.07431 15.1267 2.56537 14.7406 2.64853 14.2343L3.35863 9.91116C3.39166 9.71013 3.32782 9.50496 3.18793 9.36258L0.179898 6.30091C-0.172392 5.94233 0.0220052 5.3176 0.508859 5.24373L4.66585 4.61299C4.85918 4.58366 5.02631 4.45687 5.11277 4.27393L6.97186 0.340612Z" fill="#FFC700"/>
</g>
<defs>
<clipPath id="clip0_64_1822">
<rect width="15" height="15" fill="white"/>
</clipPath>
</defs>
</svg>
